<svg width="241" height="71" viewBox="0 0 241 71" fill="none" xmlns="http://www.w3.org/2000/svg">
<path d="M223 55.1111C219.704 55.1111 216.685 54.3148 213.944 52.7222C211.204 51.1296 209.019 48.9815 207.389 46.2778C205.796 43.574 205 40.5926 205 37.3333C205 34.037 205.796 31.0555 207.389 28.3889C209.019 25.6852 211.204 23.537 213.944 21.9444C216.685 20.3518 219.704 19.5555 223 19.5555C226.333 19.5555 229.352 20.3518 232.056 21.9444C234.796 23.537 236.963 25.6852 238.556 28.3889C240.185 31.0555 241 34.037 241 37.3333C241 40.5926 240.185 43.574 238.556 46.2778C236.963 48.9815 234.796 51.1296 232.056 52.7222C229.352 54.3148 226.333 55.1111 223 55.1111ZM223 46.4444C224.667 46.4444 226.167 46.037 227.5 45.2222C228.87 44.4074 229.944 43.3148 230.722 41.9444C231.537 40.537 231.944 39 231.944 37.3333C231.944 35.6296 231.537 34.0926 230.722 32.7222C229.944 31.3518 228.87 30.2592 227.5 29.4444C226.167 28.6296 224.667 28.2222 223 28.2222C221.333 28.2222 219.815 28.6296 218.444 29.4444C217.111 30.2592 216.037 31.3518 215.222 32.7222C214.444 34.0926 214.056 35.6296 214.056 37.3333C214.056 39 214.444 40.537 215.222 41.9444C216.037 43.3148 217.111 44.4074 218.444 45.2222C219.815 46.037 221.333 46.4444 223 46.4444Z" fill="black"/>
<path d="M169.115 70.6666L180.226 48.3333L166.615 20.6666H177.281L183.17 32.8889C183.689 34 184.133 35.0185 184.504 35.9444C184.911 36.8333 185.244 37.7037 185.504 38.5555C185.8 37.7037 186.152 36.8333 186.559 35.9444C186.966 35.0185 187.448 34 188.004 32.8889L194.004 20.6666H204.281L179.504 70.6666H169.115Z" fill="black"/>
<path d="M152.872 54V0.666641H162.538V54H152.872Z" fill="black"/>
<path d="M135.684 54V0.666641H145.351V54H135.684Z" fill="black"/>
<path d="M109.479 54.8889C106.405 54.8889 103.609 54.0926 101.09 52.5C98.5718 50.9074 96.5532 48.7963 95.0347 46.1666C93.5532 43.5 92.8125 40.5555 92.8125 37.3333C92.8125 34.1111 93.5532 31.1666 95.0347 28.5C96.5532 25.8333 98.5718 23.7222 101.09 22.1666C103.609 20.5741 106.405 19.7778 109.479 19.7778C111.627 19.7778 113.59 20.1666 115.368 20.9444C117.146 21.6852 118.664 22.7222 119.924 24.0555V20.6666H128.257V54H119.924V50.6111C118.664 51.9444 117.146 53 115.368 53.7778C113.59 54.5185 111.627 54.8889 109.479 54.8889ZM110.646 46.3889C112.275 46.3889 113.757 45.9815 115.09 45.1666C116.424 44.3518 117.479 43.2592 118.257 41.8889C119.072 40.5185 119.479 39 119.479 37.3333C119.479 35.6666 119.072 34.1481 118.257 32.7778C117.479 31.4074 116.424 30.3148 115.09 29.5C113.757 28.6852 112.275 28.2778 110.646 28.2778C109.016 28.2778 107.535 28.6852 106.201 29.5C104.868 30.3148 103.794 31.4074 102.979 32.7778C102.201 34.1481 101.812 35.6666 101.812 37.3333C101.812 39 102.201 40.5185 102.979 41.8889C103.794 43.2592 104.868 44.3518 106.201 45.1666C107.535 45.9815 109.016 46.3889 110.646 46.3889Z" fill="black"/>
<path d="M60.3334 13V3.99998H95.1112V13H82.8889V54H72.5556V13H60.3334Z" fill="black"/>
<path d="M33.4156 21.6498C33.4156 23.6869 31.7641 25.3383 29.727 25.3383L26.7356 25.3383C23.1564 25.3383 20.255 28.2398 20.255 31.8189L20.255 34.7523C20.255 36.7114 18.6668 38.2995 16.7078 38.2995V38.2995C14.7487 38.2995 13.1606 36.7114 13.1606 34.7523L13.1606 31.8189C13.1606 28.2398 10.2591 25.3383 6.67998 25.3383L3.68856 25.3383C1.65143 25.3383 1.74254e-07 23.6869 1.98546e-07 21.6498V21.6498C2.22839e-07 19.6126 1.65143 17.9612 3.68856 17.9612L6.67998 17.9612C10.2591 17.9612 13.1606 15.0597 13.1606 11.4806L13.1606 8.54718C13.1606 6.58812 14.7487 4.99999 16.7078 4.99999V4.99999C18.6668 4.99999 20.255 6.58812 20.255 8.54718L20.255 11.4806C20.255 15.0597 23.1564 17.9612 26.7356 17.9612L29.727 17.9612C31.7641 17.9612 33.4156 19.6126 33.4156 21.6498V21.6498Z" fill="#56AF12"/>
<circle cx="43" cy="5" r="5" transform="rotate(-90 43 5)" fill="#255DE0"/>
<rect x="26" y="47" width="21" height="7" rx="3.5" fill="#E02528"/>
</svg>
